<svg width="936" height="264" viewBox="0 0 936 264" fill="none" xmlns="http://www.w3.org/2000/svg">
<path d="M885 124.5C885 99.8762 859.048 75.8054 810.425 55.3315C761.803 34.8576 692.694 18.9001 611.837 9.477C530.981 0.0538878 442.009 -2.41163 356.173 2.39223C270.336 7.19609 191.49 19.0536 129.605 36.4652C67.7205 53.8768 25.5765 76.0606 8.50251 100.211C-8.57145 124.362 0.19153 149.395 33.6833 172.144C67.1751 194.893 123.891 214.338 196.66 228.018C269.429 241.698 354.982 249 442.5 249V237.17C363.298 237.17 285.875 230.562 220.02 218.181C154.166 205.801 102.839 188.205 72.5301 167.617C42.2208 147.029 34.2905 124.375 49.742 102.519C65.1936 80.6635 103.333 60.5876 159.337 44.8305C215.342 29.0734 286.695 18.3426 364.376 13.9952C442.056 9.64783 522.573 11.8791 595.747 20.4068C668.92 28.9345 731.462 43.3756 775.464 61.9041C819.466 80.4325 842.953 102.216 842.953 124.5H885Z" fill="#444444"/>
<path d="M601.918 205.36C600.478 205.36 599.194 205.036 598.066 204.388C596.938 203.74 596.05 202.852 595.402 201.724V205H591.19V178.72H596.014V189.448C596.686 188.32 597.562 187.432 598.642 186.784C599.746 186.136 601.03 185.812 602.494 185.812C603.718 185.812 604.834 186.076 605.842 186.604C606.85 187.108 607.714 187.816 608.434 188.728C609.178 189.64 609.742 190.684 610.126 191.86C610.534 193.036 610.738 194.296 610.738 195.64C610.738 196.984 610.51 198.244 610.054 199.42C609.622 200.596 609.01 201.64 608.218 202.552C607.426 203.44 606.49 204.136 605.41 204.64C604.354 205.12 603.19 205.36 601.918 205.36ZM600.586 201.256C601.354 201.256 602.05 201.112 602.674 200.824C603.322 200.512 603.874 200.104 604.33 199.6C604.81 199.096 605.17 198.508 605.41 197.836C605.674 197.14 605.806 196.42 605.806 195.676C605.806 194.644 605.59 193.696 605.158 192.832C604.75 191.944 604.174 191.236 603.43 190.708C602.71 190.18 601.858 189.916 600.874 189.916C600.178 189.916 599.506 190.084 598.858 190.42C598.234 190.732 597.67 191.164 597.166 191.716C596.686 192.268 596.302 192.892 596.014 193.588V198.088C596.158 198.568 596.386 199 596.698 199.384C597.034 199.768 597.418 200.104 597.85 200.392C598.282 200.656 598.726 200.872 599.182 201.04C599.662 201.184 600.13 201.256 600.586 201.256ZM621.711 199.42C621.711 198.196 622.047 197.128 622.719 196.216C623.415 195.28 624.375 194.56 625.599 194.056C626.823 193.552 628.227 193.3 629.811 193.3C630.603 193.3 631.407 193.36 632.223 193.48C633.039 193.6 633.747 193.792 634.347 194.056V193.048C634.347 191.848 633.987 190.924 633.267 190.276C632.571 189.628 631.527 189.304 630.135 189.304C629.103 189.304 628.119 189.484 627.183 189.844C626.247 190.204 625.263 190.732 624.231 191.428L622.683 188.26C623.931 187.444 625.203 186.832 626.499 186.424C627.819 186.016 629.199 185.812 630.639 185.812C633.327 185.812 635.415 186.484 636.903 187.828C638.415 189.172 639.171 191.092 639.171 193.588V199.6C639.171 200.104 639.255 200.464 639.423 200.68C639.615 200.896 639.915 201.028 640.323 201.076V205C639.891 205.072 639.495 205.132 639.135 205.18C638.799 205.228 638.511 205.252 638.271 205.252C637.311 205.252 636.579 205.036 636.075 204.604C635.595 204.172 635.295 203.644 635.175 203.02L635.067 202.048C634.251 203.104 633.231 203.92 632.007 204.496C630.783 205.072 629.535 205.36 628.263 205.36C627.015 205.36 625.887 205.108 624.879 204.604C623.895 204.076 623.115 203.368 622.539 202.48C621.987 201.568 621.711 200.548 621.711 199.42ZM633.447 200.392C633.711 200.104 633.927 199.816 634.095 199.528C634.263 199.24 634.347 198.976 634.347 198.736V196.828C633.771 196.588 633.147 196.408 632.475 196.288C631.803 196.144 631.167 196.072 630.567 196.072C629.319 196.072 628.287 196.348 627.471 196.9C626.679 197.428 626.283 198.136 626.283 199.024C626.283 199.504 626.415 199.96 626.679 200.392C626.943 200.824 627.327 201.172 627.831 201.436C628.335 201.7 628.935 201.832 629.631 201.832C630.351 201.832 631.059 201.7 631.755 201.436C632.451 201.148 633.015 200.8 633.447 200.392ZM661.462 205.36C659.926 205.36 658.546 205.108 657.322 204.604C656.098 204.076 655.054 203.356 654.19 202.444C653.326 201.508 652.654 200.452 652.174 199.276C651.718 198.1 651.49 196.864 651.49 195.568C651.49 193.792 651.886 192.172 652.678 190.708C653.494 189.22 654.646 188.032 656.134 187.144C657.622 186.256 659.386 185.812 661.426 185.812C663.466 185.812 665.218 186.256 666.682 187.144C668.146 188.032 669.238 189.196 669.958 190.636L665.242 192.076C664.834 191.38 664.294 190.852 663.622 190.492C662.95 190.108 662.206 189.916 661.39 189.916C660.478 189.916 659.638 190.156 658.87 190.636C658.126 191.092 657.538 191.752 657.106 192.616C656.674 193.456 656.458 194.44 656.458 195.568C656.458 196.672 656.674 197.656 657.106 198.52C657.562 199.36 658.162 200.032 658.906 200.536C659.65 201.016 660.478 201.256 661.39 201.256C661.966 201.256 662.506 201.16 663.01 200.968C663.538 200.776 664.006 200.512 664.414 200.176C664.822 199.84 665.122 199.456 665.314 199.024L670.03 200.464C669.598 201.4 668.962 202.24 668.122 202.984C667.306 203.728 666.334 204.316 665.206 204.748C664.102 205.156 662.854 205.36 661.462 205.36ZM694.887 205L689.379 196.864L686.823 199.384V205H681.999V178.72H686.823V194.632L694.419 186.172H699.531L692.511 194.164L700.035 205H694.887ZM737.469 205.36C735.957 205.36 734.589 205.108 733.365 204.604C732.141 204.076 731.097 203.368 730.233 202.48C729.369 201.568 728.697 200.536 728.217 199.384C727.761 198.208 727.533 196.972 727.533 195.676C727.533 193.876 727.929 192.232 728.721 190.744C729.537 189.256 730.689 188.068 732.177 187.18C733.689 186.268 735.465 185.812 737.505 185.812C739.569 185.812 741.333 186.268 742.797 187.18C744.261 188.068 745.377 189.256 746.145 190.744C746.937 192.208 747.333 193.792 747.333 195.496C747.333 195.784 747.321 196.084 747.297 196.396C747.273 196.684 747.249 196.924 747.225 197.116H732.645C732.741 198.076 733.017 198.916 733.473 199.636C733.953 200.356 734.553 200.908 735.273 201.292C736.017 201.652 736.809 201.832 737.649 201.832C738.609 201.832 739.509 201.604 740.349 201.148C741.213 200.668 741.801 200.044 742.113 199.276L746.253 200.428C745.797 201.388 745.137 202.24 744.273 202.984C743.433 203.728 742.437 204.316 741.285 204.748C740.133 205.156 738.861 205.36 737.469 205.36ZM732.537 194.056H742.401C742.305 193.096 742.029 192.268 741.573 191.572C741.141 190.852 740.565 190.3 739.845 189.916C739.125 189.508 738.321 189.304 737.433 189.304C736.569 189.304 735.777 189.508 735.057 189.916C734.361 190.3 733.785 190.852 733.329 191.572C732.897 192.268 732.633 193.096 732.537 194.056ZM776.804 205H771.98V194.416C771.98 192.904 771.716 191.8 771.188 191.104C770.66 190.408 769.928 190.06 768.992 190.06C768.344 190.06 767.684 190.228 767.012 190.564C766.364 190.9 765.776 191.368 765.248 191.968C764.72 192.544 764.336 193.216 764.096 193.984V205H759.272V186.136H763.628V189.628C764.108 188.812 764.72 188.128 765.464 187.576C766.208 187 767.06 186.568 768.02 186.28C769.004 185.968 770.036 185.812 771.116 185.812C772.292 185.812 773.252 186.028 773.996 186.46C774.764 186.868 775.34 187.432 775.724 188.152C776.132 188.848 776.408 189.64 776.552 190.528C776.72 191.416 776.804 192.316 776.804 193.228V205ZM788.847 195.568C788.847 193.744 789.207 192.1 789.927 190.636C790.647 189.148 791.643 187.972 792.915 187.108C794.187 186.244 795.639 185.812 797.271 185.812C798.663 185.812 799.911 186.16 801.015 186.856C802.143 187.528 803.019 188.392 803.643 189.448V178.72H808.467V199.6C808.467 200.104 808.551 200.464 808.719 200.68C808.887 200.896 809.175 201.028 809.583 201.076V205C808.743 205.168 808.059 205.252 807.531 205.252C806.667 205.252 805.947 205.036 805.371 204.604C804.819 204.172 804.507 203.608 804.435 202.912L804.363 201.724C803.667 202.9 802.719 203.8 801.519 204.424C800.343 205.048 799.107 205.36 797.811 205.36C796.515 205.36 795.315 205.108 794.211 204.604C793.131 204.1 792.183 203.404 791.367 202.516C790.575 201.628 789.951 200.596 789.495 199.42C789.063 198.22 788.847 196.936 788.847 195.568ZM803.643 198.088V193.588C803.403 192.892 803.019 192.268 802.491 191.716C801.963 191.164 801.375 190.732 800.727 190.42C800.079 190.084 799.431 189.916 798.783 189.916C798.039 189.916 797.367 190.072 796.767 190.384C796.167 190.696 795.639 191.116 795.183 191.644C794.751 192.172 794.415 192.784 794.175 193.48C793.959 194.176 793.851 194.908 793.851 195.676C793.851 196.444 793.971 197.176 794.211 197.872C794.475 198.544 794.847 199.132 795.327 199.636C795.807 200.14 796.359 200.536 796.983 200.824C797.631 201.112 798.327 201.256 799.071 201.256C799.527 201.256 799.983 201.184 800.439 201.04C800.919 200.872 801.363 200.656 801.771 200.392C802.203 200.104 802.575 199.768 802.887 199.384C803.223 198.976 803.475 198.544 803.643 198.088ZM576.802 237.568C576.802 235.744 577.162 234.1 577.882 232.636C578.602 231.148 579.598 229.972 580.87 229.108C582.142 228.244 583.594 227.812 585.226 227.812C586.618 227.812 587.866 228.16 588.97 228.856C590.098 229.528 590.974 230.392 591.598 231.448V220.72H596.422V241.6C596.422 242.104 596.506 242.464 596.674 242.68C596.842 242.896 597.13 243.028 597.538 243.076V247C596.698 247.168 596.014 247.252 595.486 247.252C594.622 247.252 593.902 247.036 593.326 246.604C592.774 246.172 592.462 245.608 592.39 244.912L592.318 243.724C591.622 244.9 590.674 245.8 589.474 246.424C588.298 247.048 587.062 247.36 585.766 247.36C584.47 247.36 583.27 247.108 582.166 246.604C581.086 246.1 580.138 245.404 579.322 244.516C578.53 243.628 577.906 242.596 577.45 241.42C577.018 240.22 576.802 238.936 576.802 237.568ZM591.598 240.088V235.588C591.358 234.892 590.974 234.268 590.446 233.716C589.918 233.164 589.33 232.732 588.682 232.42C588.034 232.084 587.386 231.916 586.738 231.916C585.994 231.916 585.322 232.072 584.722 232.384C584.122 232.696 583.594 233.116 583.138 233.644C582.706 234.172 582.37 234.784 582.13 235.48C581.914 236.176 581.806 236.908 581.806 237.676C581.806 238.444 581.926 239.176 582.166 239.872C582.43 240.544 582.802 241.132 583.282 241.636C583.762 242.14 584.314 242.536 584.938 242.824C585.586 243.112 586.282 243.256 587.026 243.256C587.482 243.256 587.938 243.184 588.394 243.04C588.874 242.872 589.318 242.656 589.726 242.392C590.158 242.104 590.53 241.768 590.842 241.384C591.178 240.976 591.43 240.544 591.598 240.088ZM618.905 247.36C617.393 247.36 616.025 247.108 614.801 246.604C613.577 246.076 612.533 245.368 611.669 244.48C610.805 243.568 610.133 242.536 609.653 241.384C609.197 240.208 608.969 238.972 608.969 237.676C608.969 235.876 609.365 234.232 610.157 232.744C610.973 231.256 612.125 230.068 613.613 229.18C615.125 228.268 616.901 227.812 618.941 227.812C621.005 227.812 622.769 228.268 624.233 229.18C625.697 230.068 626.813 231.256 627.581 232.744C628.373 234.208 628.769 235.792 628.769 237.496C628.769 237.784 628.757 238.084 628.733 238.396C628.709 238.684 628.685 238.924 628.661 239.116H614.081C614.177 240.076 614.453 240.916 614.909 241.636C615.389 242.356 615.989 242.908 616.709 243.292C617.453 243.652 618.245 243.832 619.085 243.832C620.045 243.832 620.945 243.604 621.785 243.148C622.649 242.668 623.237 242.044 623.549 241.276L627.689 242.428C627.233 243.388 626.573 244.24 625.709 244.984C624.869 245.728 623.873 246.316 622.721 246.748C621.569 247.156 620.297 247.36 618.905 247.36ZM613.973 236.056H623.837C623.741 235.096 623.465 234.268 623.009 233.572C622.577 232.852 622.001 232.3 621.281 231.916C620.561 231.508 619.757 231.304 618.869 231.304C618.005 231.304 617.213 231.508 616.493 231.916C615.797 232.3 615.221 232.852 614.765 233.572C614.333 234.268 614.069 235.096 613.973 236.056ZM645.256 247L638.308 228.136H643.312L648.064 242.608L652.852 228.136H657.424L650.512 247H645.256ZM677.089 247.36C675.577 247.36 674.209 247.108 672.985 246.604C671.761 246.076 670.717 245.368 669.853 244.48C668.989 243.568 668.317 242.536 667.837 241.384C667.381 240.208 667.153 238.972 667.153 237.676C667.153 235.876 667.549 234.232 668.341 232.744C669.157 231.256 670.309 230.068 671.797 229.18C673.309 228.268 675.085 227.812 677.125 227.812C679.189 227.812 680.953 228.268 682.417 229.18C683.881 230.068 684.997 231.256 685.765 232.744C686.557 234.208 686.953 235.792 686.953 237.496C686.953 237.784 686.941 238.084 686.917 238.396C686.893 238.684 686.869 238.924 686.845 239.116H672.265C672.361 240.076 672.637 240.916 673.093 241.636C673.573 242.356 674.173 242.908 674.893 243.292C675.637 243.652 676.429 243.832 677.269 243.832C678.229 243.832 679.129 243.604 679.969 243.148C680.833 242.668 681.421 242.044 681.733 241.276L685.873 242.428C685.417 243.388 684.757 244.24 683.893 244.984C683.053 245.728 682.057 246.316 680.905 246.748C679.753 247.156 678.481 247.36 677.089 247.36ZM672.157 236.056H682.021C681.925 235.096 681.649 234.268 681.193 233.572C680.761 232.852 680.185 232.3 679.465 231.916C678.745 231.508 677.941 231.304 677.053 231.304C676.189 231.304 675.397 231.508 674.677 231.916C673.981 232.3 673.405 232.852 672.949 233.572C672.517 234.268 672.253 235.096 672.157 236.056ZM698.855 220.72H703.679V240.952C703.679 241.816 703.823 242.404 704.111 242.716C704.399 243.004 704.795 243.148 705.299 243.148C705.683 243.148 706.079 243.1 706.487 243.004C706.895 242.908 707.255 242.788 707.567 242.644L708.215 246.316C707.567 246.628 706.811 246.868 705.947 247.036C705.083 247.204 704.303 247.288 703.607 247.288C702.095 247.288 700.919 246.892 700.079 246.1C699.263 245.284 698.855 244.132 698.855 242.644V220.72ZM728.029 247.36C726.493 247.36 725.113 247.108 723.889 246.604C722.665 246.076 721.621 245.356 720.757 244.444C719.917 243.532 719.269 242.488 718.813 241.312C718.357 240.136 718.129 238.9 718.129 237.604C718.129 236.284 718.357 235.036 718.813 233.86C719.269 232.684 719.917 231.64 720.757 230.728C721.621 229.816 722.665 229.108 723.889 228.604C725.113 228.076 726.493 227.812 728.029 227.812C729.565 227.812 730.933 228.076 732.133 228.604C733.357 229.108 734.401 229.816 735.265 230.728C736.129 231.64 736.777 232.684 737.209 233.86C737.665 235.036 737.893 236.284 737.893 237.604C737.893 238.9 737.665 240.136 737.209 241.312C736.777 242.488 736.129 243.532 735.265 244.444C734.425 245.356 733.393 246.076 732.169 246.604C730.945 247.108 729.565 247.36 728.029 247.36ZM723.097 237.604C723.097 238.708 723.313 239.692 723.745 240.556C724.177 241.396 724.765 242.056 725.509 242.536C726.253 243.016 727.093 243.256 728.029 243.256C728.941 243.256 729.769 243.016 730.513 242.536C731.257 242.032 731.845 241.36 732.277 240.52C732.733 239.656 732.961 238.672 732.961 237.568C732.961 236.488 732.733 235.516 732.277 234.652C731.845 233.788 731.257 233.116 730.513 232.636C729.769 232.156 728.941 231.916 728.029 231.916C727.093 231.916 726.253 232.168 725.509 232.672C724.765 233.152 724.177 233.824 723.745 234.688C723.313 235.528 723.097 236.5 723.097 237.604ZM761.453 247.36C759.989 247.36 758.693 247.036 757.565 246.388C756.461 245.716 755.597 244.816 754.973 243.688V254.668H750.149V228.136H754.361V231.376C755.081 230.272 755.993 229.408 757.097 228.784C758.201 228.136 759.461 227.812 760.877 227.812C762.149 227.812 763.313 228.064 764.369 228.568C765.449 229.072 766.385 229.78 767.177 230.692C767.969 231.58 768.581 232.612 769.013 233.788C769.469 234.94 769.697 236.188 769.697 237.532C769.697 239.356 769.337 241.012 768.617 242.5C767.921 243.988 766.949 245.176 765.701 246.064C764.477 246.928 763.061 247.36 761.453 247.36ZM759.833 243.256C760.577 243.256 761.249 243.1 761.849 242.788C762.449 242.476 762.965 242.056 763.397 241.528C763.853 240.976 764.189 240.364 764.405 239.692C764.645 238.996 764.765 238.276 764.765 237.532C764.765 236.74 764.633 236.008 764.369 235.336C764.129 234.664 763.769 234.076 763.289 233.572C762.809 233.044 762.245 232.636 761.597 232.348C760.973 232.06 760.289 231.916 759.545 231.916C759.089 231.916 758.621 232 758.141 232.168C757.685 232.312 757.241 232.528 756.809 232.816C756.377 233.104 755.993 233.44 755.657 233.824C755.345 234.208 755.117 234.628 754.973 235.084V239.512C755.261 240.208 755.645 240.844 756.125 241.42C756.629 241.996 757.205 242.452 757.853 242.788C758.501 243.1 759.161 243.256 759.833 243.256ZM790.714 247.36C789.202 247.36 787.834 247.108 786.61 246.604C785.386 246.076 784.342 245.368 783.478 244.48C782.614 243.568 781.942 242.536 781.462 241.384C781.006 240.208 780.778 238.972 780.778 237.676C780.778 235.876 781.174 234.232 781.966 232.744C782.782 231.256 783.934 230.068 785.422 229.18C786.934 228.268 788.71 227.812 790.75 227.812C792.814 227.812 794.578 228.268 796.042 229.18C797.506 230.068 798.622 231.256 799.39 232.744C800.182 234.208 800.578 235.792 800.578 237.496C800.578 237.784 800.566 238.084 800.542 238.396C800.518 238.684 800.494 238.924 800.47 239.116H785.89C785.986 240.076 786.262 240.916 786.718 241.636C787.198 242.356 787.798 242.908 788.518 243.292C789.262 243.652 790.054 243.832 790.894 243.832C791.854 243.832 792.754 243.604 793.594 243.148C794.458 242.668 795.046 242.044 795.358 241.276L799.498 242.428C799.042 243.388 798.382 244.24 797.518 244.984C796.678 245.728 795.682 246.316 794.53 246.748C793.378 247.156 792.106 247.36 790.714 247.36ZM785.782 236.056H795.646C795.55 235.096 795.274 234.268 794.818 233.572C794.386 232.852 793.81 232.3 793.09 231.916C792.37 231.508 791.566 231.304 790.678 231.304C789.814 231.304 789.022 231.508 788.302 231.916C787.606 232.3 787.03 232.852 786.574 233.572C786.142 234.268 785.878 235.096 785.782 236.056ZM823.748 232.312C822.284 232.312 820.976 232.6 819.824 233.176C818.672 233.728 817.844 234.532 817.34 235.588V247H812.516V228.136H816.944V232.168C817.616 230.872 818.468 229.852 819.5 229.108C820.532 228.364 821.624 227.956 822.776 227.884C823.04 227.884 823.244 227.884 823.388 227.884C823.532 227.884 823.652 227.896 823.748 227.92V232.312Z" fill="black"/>
<path d="M373.778 161.28H382.354V197.248C382.354 198.784 382.61 199.829 383.122 200.384C383.634 200.896 384.338 201.152 385.234 201.152C385.916 201.152 386.62 201.067 387.346 200.896C388.071 200.725 388.711 200.512 389.266 200.256L390.418 206.784C389.266 207.339 387.922 207.765 386.385 208.064C384.85 208.363 383.463 208.512 382.226 208.512C379.538 208.512 377.447 207.808 375.954 206.4C374.503 204.949 373.778 202.901 373.778 200.256V161.28ZM409.834 195.456V174.464H418.41V193.6C418.41 196.16 418.879 198.101 419.818 199.424C420.757 200.704 422.143 201.344 423.978 201.344C425.087 201.344 426.175 201.131 427.242 200.704C428.351 200.235 429.354 199.552 430.25 198.656C431.189 197.76 431.978 196.629 432.618 195.264V174.464H441.194V198.4C441.194 199.296 441.343 199.936 441.642 200.32C441.983 200.704 442.517 200.939 443.242 201.024V208C442.389 208.128 441.663 208.213 441.066 208.256C440.511 208.341 439.999 208.384 439.53 208.384C437.994 208.384 436.735 208.043 435.754 207.36C434.815 206.635 434.261 205.653 434.09 204.416L433.898 201.728C432.405 203.989 430.485 205.717 428.138 206.912C425.791 208.064 423.21 208.64 420.394 208.64C416.938 208.64 414.314 207.531 412.522 205.312C410.73 203.051 409.834 199.765 409.834 195.456ZM465.717 208V174.464H474.293V208H465.717ZM465.717 169.792V161.28H474.293V169.792H465.717ZM495.789 202.752L514.285 180.48H496.557V174.464H523.501V179.712L505.133 201.984H523.821V208H495.789V202.752Z" fill="black"/>
<path d="M100.499 111.82C101.227 112.324 102.515 112.94 104.363 113.668C106.211 114.34 108.395 114.676 110.915 114.676C113.099 114.676 114.891 114.312 116.291 113.584C117.691 112.8 118.755 111.652 119.483 110.14C120.267 108.628 120.771 106.668 120.995 104.26C121.275 101.852 121.415 98.968 121.415 95.608V64.36H133.007V94.684C133.007 99.164 132.755 103.252 132.251 106.948C131.747 110.644 130.767 113.836 129.311 116.524C127.855 119.212 125.643 121.284 122.675 122.74C119.763 124.196 115.871 124.924 110.999 124.924C108.311 124.924 105.903 124.616 103.775 124C101.647 123.384 99.6866 122.46 97.8946 121.228L100.499 111.82ZM184.366 124.84C180.838 124.84 177.646 124.252 174.79 123.076C171.934 121.844 169.498 120.192 167.482 118.12C165.466 115.992 163.898 113.584 162.778 110.896C161.714 108.152 161.182 105.268 161.182 102.244C161.182 98.044 162.106 94.208 163.954 90.736C165.858 87.264 168.546 84.492 172.018 82.42C175.546 80.292 179.69 79.228 184.45 79.228C189.266 79.228 193.382 80.292 196.798 82.42C200.214 84.492 202.818 87.264 204.61 90.736C206.458 94.152 207.382 97.848 207.382 101.824C207.382 102.496 207.354 103.196 207.298 103.924C207.242 104.596 207.186 105.156 207.13 105.604H173.11C173.334 107.844 173.978 109.804 175.042 111.484C176.162 113.164 177.562 114.452 179.242 115.348C180.978 116.188 182.826 116.608 184.786 116.608C187.026 116.608 189.126 116.076 191.086 115.012C193.102 113.892 194.474 112.436 195.202 110.644L204.862 113.332C203.798 115.572 202.258 117.56 200.242 119.296C198.282 121.032 195.958 122.404 193.27 123.412C190.582 124.364 187.614 124.84 184.366 124.84ZM172.858 98.464H195.874C195.65 96.224 195.006 94.292 193.942 92.668C192.934 90.988 191.59 89.7 189.91 88.804C188.23 87.852 186.354 87.376 184.282 87.376C182.266 87.376 180.418 87.852 178.738 88.804C177.114 89.7 175.77 90.988 174.706 92.668C173.698 94.292 173.082 96.224 172.858 98.464ZM232.551 101.992C232.551 97.736 233.391 93.9 235.071 90.484C236.751 87.012 239.075 84.268 242.043 82.252C245.011 80.236 248.399 79.228 252.207 79.228C255.455 79.228 258.367 80.04 260.943 81.664C263.575 83.232 265.619 85.248 267.075 87.712V62.68H278.331V111.4C278.331 112.576 278.527 113.416 278.919 113.92C279.311 114.424 279.983 114.732 280.935 114.844V124C278.975 124.392 277.379 124.588 276.147 124.588C274.131 124.588 272.451 124.084 271.107 123.076C269.819 122.068 269.091 120.752 268.923 119.128L268.755 116.356C267.131 119.1 264.919 121.2 262.119 122.656C259.375 124.112 256.491 124.84 253.467 124.84C250.443 124.84 247.643 124.252 245.067 123.076C242.547 121.9 240.335 120.276 238.431 118.204C236.583 116.132 235.127 113.724 234.063 110.98C233.055 108.18 232.551 105.184 232.551 101.992ZM267.075 107.872V97.372C266.515 95.748 265.619 94.292 264.387 93.004C263.155 91.716 261.783 90.708 260.271 89.98C258.759 89.196 257.247 88.804 255.735 88.804C253.999 88.804 252.431 89.168 251.031 89.896C249.631 90.624 248.399 91.604 247.335 92.836C246.327 94.068 245.543 95.496 244.983 97.12C244.479 98.744 244.227 100.452 244.227 102.244C244.227 104.036 244.507 105.744 245.067 107.368C245.683 108.936 246.551 110.308 247.671 111.484C248.791 112.66 250.079 113.584 251.535 114.256C253.047 114.928 254.671 115.264 256.407 115.264C257.471 115.264 258.535 115.096 259.599 114.76C260.719 114.368 261.755 113.864 262.707 113.248C263.715 112.576 264.583 111.792 265.311 110.896C266.095 109.944 266.683 108.936 267.075 107.872ZM330.792 124.84C327.264 124.84 324.072 124.252 321.216 123.076C318.36 121.844 315.924 120.192 313.908 118.12C311.892 115.992 310.324 113.584 309.204 110.896C308.14 108.152 307.608 105.268 307.608 102.244C307.608 98.044 308.532 94.208 310.38 90.736C312.284 87.264 314.972 84.492 318.444 82.42C321.972 80.292 326.116 79.228 330.876 79.228C335.692 79.228 339.808 80.292 343.224 82.42C346.64 84.492 349.244 87.264 351.036 90.736C352.884 94.152 353.808 97.848 353.808 101.824C353.808 102.496 353.78 103.196 353.724 103.924C353.668 104.596 353.612 105.156 353.556 105.604H319.536C319.76 107.844 320.404 109.804 321.468 111.484C322.588 113.164 323.988 114.452 325.668 115.348C327.404 116.188 329.252 116.608 331.212 116.608C333.452 116.608 335.552 116.076 337.512 115.012C339.528 113.892 340.9 112.436 341.628 110.644L351.288 113.332C350.224 115.572 348.684 117.56 346.668 119.296C344.708 121.032 342.384 122.404 339.696 123.412C337.008 124.364 334.04 124.84 330.792 124.84ZM319.284 98.464H342.3C342.076 96.224 341.432 94.292 340.368 92.668C339.36 90.988 338.016 89.7 336.336 88.804C334.656 87.852 332.78 87.376 330.708 87.376C328.692 87.376 326.844 87.852 325.164 88.804C323.54 89.7 322.196 90.988 321.132 92.668C320.124 94.292 319.508 96.224 319.284 98.464ZM381.665 124V79.984H392.921V124H381.665ZM381.665 73.852V62.68H392.921V73.852H381.665ZM421.051 110.98C421.051 108.124 421.835 105.632 423.403 103.504C425.027 101.32 427.267 99.64 430.123 98.464C432.979 97.288 436.255 96.7 439.951 96.7C441.799 96.7 443.675 96.84 445.579 97.12C447.483 97.4 449.135 97.848 450.535 98.464V96.112C450.535 93.312 449.695 91.156 448.015 89.644C446.391 88.132 443.955 87.376 440.707 87.376C438.299 87.376 436.003 87.796 433.819 88.636C431.635 89.476 429.339 90.708 426.931 92.332L423.319 84.94C426.231 83.036 429.199 81.608 432.223 80.656C435.303 79.704 438.523 79.228 441.883 79.228C448.155 79.228 453.027 80.796 456.499 83.932C460.027 87.068 461.791 91.548 461.791 97.372V111.4C461.791 112.576 461.987 113.416 462.379 113.92C462.827 114.424 463.527 114.732 464.479 114.844V124C463.471 124.168 462.547 124.308 461.707 124.42C460.923 124.532 460.251 124.588 459.691 124.588C457.451 124.588 455.743 124.084 454.567 123.076C453.447 122.068 452.747 120.836 452.467 119.38L452.215 117.112C450.311 119.576 447.931 121.48 445.075 122.824C442.219 124.168 439.307 124.84 436.339 124.84C433.427 124.84 430.795 124.252 428.443 123.076C426.147 121.844 424.327 120.192 422.983 118.12C421.695 115.992 421.051 113.612 421.051 110.98ZM448.435 113.248C449.051 112.576 449.555 111.904 449.947 111.232C450.339 110.56 450.535 109.944 450.535 109.384V104.932C449.191 104.372 447.735 103.952 446.167 103.672C444.599 103.336 443.115 103.168 441.715 103.168C438.803 103.168 436.395 103.812 434.491 105.1C432.643 106.332 431.719 107.984 431.719 110.056C431.719 111.176 432.027 112.24 432.643 113.248C433.259 114.256 434.155 115.068 435.331 115.684C436.507 116.3 437.907 116.608 439.531 116.608C441.211 116.608 442.863 116.3 444.487 115.684C446.111 115.012 447.427 114.2 448.435 113.248ZM509.522 124.84C505.77 124.84 502.186 124.224 498.77 122.992C495.354 121.76 492.414 119.94 489.95 117.532L493.982 110.224C496.614 112.352 499.19 113.92 501.71 114.928C504.286 115.936 506.75 116.44 509.102 116.44C511.286 116.44 513.022 116.048 514.31 115.264C515.654 114.48 516.326 113.304 516.326 111.736C516.326 110.672 515.962 109.86 515.234 109.3C514.506 108.684 513.442 108.152 512.042 107.704C510.698 107.256 509.046 106.752 507.086 106.192C503.838 105.128 501.122 104.092 498.938 103.084C496.754 102.076 495.102 100.816 493.982 99.304C492.918 97.736 492.386 95.748 492.386 93.34C492.386 90.428 493.114 87.936 494.57 85.864C496.082 83.736 498.154 82.084 500.786 80.908C503.474 79.732 506.61 79.144 510.194 79.144C513.33 79.144 516.298 79.648 519.098 80.656C521.898 81.608 524.446 83.176 526.742 85.36L522.206 92.5C519.966 90.764 517.838 89.504 515.822 88.72C513.806 87.88 511.762 87.46 509.69 87.46C508.514 87.46 507.394 87.6 506.33 87.88C505.322 88.16 504.482 88.636 503.81 89.308C503.194 89.924 502.886 90.82 502.886 91.996C502.886 93.06 503.166 93.9 503.726 94.516C504.342 95.076 505.238 95.58 506.414 96.028C507.646 96.476 509.13 96.98 510.866 97.54C514.394 98.548 517.362 99.584 519.77 100.648C522.234 101.712 524.082 103.028 525.314 104.596C526.546 106.108 527.162 108.208 527.162 110.896C527.162 115.264 525.566 118.68 522.374 121.144C519.182 123.608 514.898 124.84 509.522 124.84Z" fill="black"/>
</svg>
